<svg width="276" height="226" viewBox="0 0 276 226" fill="none" xmlns="http://www.w3.org/2000/svg">
<path d="M5.30566 61.3838H73.6899V225.017H5.30566V61.3838Z" fill="#CFD6FF"/>
<rect x="0.175293" y="61.4301" width="78.645" height="8.68225" fill="#A2B0FF"/>
<rect x="0.175293" y="113.112" width="78.645" height="8.68225" fill="#A2B0FF"/>
<rect x="0.175293" y="164.795" width="78.645" height="8.68225" fill="#A2B0FF"/>
<rect x="0.175293" y="216.335" width="78.645" height="8.68225" fill="#A2B0FF"/>
<rect x="13.3916" y="73.2926" width="10" height="17.6236" fill="#779CFC"/>
<rect x="13.3916" y="124.606" width="10" height="17.6236" fill="#779CFC"/>
<rect x="13.3916" y="92.8584" width="10" height="17.6236" fill="#779CFC"/>
<rect x="13.3916" y="144.172" width="10" height="17.6236" fill="#779CFC"/>
<rect x="34.498" y="73.2926" width="10" height="17.6236" fill="#779CFC"/>
<rect x="34.498" y="124.606" width="10" height="17.6236" fill="#779CFC"/>
<rect x="34.498" y="92.8584" width="10" height="17.6236" fill="#779CFC"/>
<rect x="34.498" y="144.172" width="10" height="17.6236" fill="#779CFC"/>
<rect x="55.604" y="73.2926" width="10" height="17.6236" fill="#779CFC"/>
<rect x="55.604" y="124.606" width="10" height="17.6236" fill="#779CFC"/>
<rect x="13.3916" y="187.326" width="10" height="17.6236" fill="#779CFC"/>
<rect x="29.498" y="187.326" width="10" height="17.6236" fill="#779CFC"/>
<rect x="55.604" y="92.8584" width="10" height="17.6236" fill="#779CFC"/>
<rect x="55.604" y="144.172" width="10" height="17.6236" fill="#779CFC"/>
<path d="M46.0088 192.326C46.0088 189.564 48.2474 187.326 51.0088 187.326H61.8579C64.6193 187.326 66.8579 189.564 66.8579 192.326V216.335H46.0088V192.326Z" fill="#755C03"/>
<path d="M270.936 82.7421H211.477V225.017H270.936V82.7421Z" fill="#FFA43A"/>
<rect width="68.3799" height="7.549" transform="matrix(-1 0 0 1 275.396 82.7823)" fill="#AE6108"/>
<rect width="68.3799" height="7.549" transform="matrix(-1 0 0 1 275.396 127.719)" fill="#AE6108"/>
<rect width="68.3799" height="7.549" transform="matrix(-1 0 0 1 275.396 172.655)" fill="#AE6108"/>
<rect width="68.3799" height="7.549" transform="matrix(-1 0 0 1 275.396 217.468)" fill="#AE6108"/>
<rect width="8.69475" height="15.3233" transform="matrix(-1 0 0 1 263.905 93.0965)" fill="#779CFC"/>
<rect width="8.69475" height="15.3233" transform="matrix(-1 0 0 1 263.905 137.712)" fill="#779CFC"/>
<rect width="8.69475" height="15.3233" transform="matrix(-1 0 0 1 263.905 110.109)" fill="#779CFC"/>
<rect width="8.69475" height="15.3233" transform="matrix(-1 0 0 1 263.905 154.724)" fill="#779CFC"/>
<rect width="8.69475" height="15.3233" transform="matrix(-1 0 0 1 245.554 93.0965)" fill="#779CFC"/>
<rect width="8.69475" height="15.3233" transform="matrix(-1 0 0 1 245.554 137.712)" fill="#779CFC"/>
<rect width="8.69475" height="15.3233" transform="matrix(-1 0 0 1 245.554 110.109)" fill="#779CFC"/>
<rect width="8.69475" height="15.3233" transform="matrix(-1 0 0 1 245.554 154.724)" fill="#779CFC"/>
<rect width="8.69475" height="15.3233" transform="matrix(-1 0 0 1 227.203 93.0965)" fill="#779CFC"/>
<rect width="8.69475" height="15.3233" transform="matrix(-1 0 0 1 227.203 137.712)" fill="#779CFC"/>
<rect width="8.69475" height="15.3233" transform="matrix(-1 0 0 1 263.905 192.246)" fill="#779CFC"/>
<rect width="8.69475" height="15.3233" transform="matrix(-1 0 0 1 249.901 192.246)" fill="#779CFC"/>
<rect width="8.69475" height="15.3233" transform="matrix(-1 0 0 1 227.203 110.109)" fill="#779CFC"/>
<rect width="8.69475" height="15.3233" transform="matrix(-1 0 0 1 227.203 154.724)" fill="#779CFC"/>
<path d="M235.545 197.246C235.545 194.484 233.307 192.246 230.545 192.246H222.418C219.656 192.246 217.418 194.484 217.418 197.246V217.468H235.545V197.246Z" fill="#755C03"/>
<path d="M138.633 72.4204L207.017 0.906738V225.017H138.633L138.633 72.4204Z" fill="#B6CAFF"/>
<rect x="138.633" y="72.4624" width="68.38" height="4.7763" fill="white"/>
<path d="M207.052 0.906799L138.667 72.4205L138.633 72.4625H138.672H207.052L207.052 0.906799Z" fill="#5C40AD"/>
<rect x="155.329" y="72.4624" width="152.555" height="3.91479" transform="rotate(90 155.329 72.4624)" fill="white"/>
<rect x="174.782" y="72.4624" width="152.555" height="3.91479" transform="rotate(90 174.782 72.4624)" fill="white"/>
<rect x="194.236" y="72.4624" width="152.555" height="3.91479" transform="rotate(90 194.236 72.4624)" fill="white"/>
<rect x="138.633" y="108.96" width="68.38" height="4.7763" fill="white"/>
<rect x="138.633" y="145.458" width="68.38" height="4.7763" fill="white"/>
<rect x="138.633" y="181.956" width="68.38" height="4.7763" fill="white"/>
<rect x="138.633" y="218.454" width="68.38" height="4.7763" fill="white"/>
<rect x="72.6348" y="144.172" width="83.6274" height="80.8456" fill="#E0B473"/>
<path d="M114.449 103.588L162.039 144.699H66.8579L114.449 103.588Z" fill="#FA6B6B"/>
<path d="M114.448 108.539L156.262 144.699H72.6348L114.448 108.539Z" fill="#E0B473"/>
<rect x="78.9863" y="151" width="15.1738" height="18.6236" fill="#A4BCFC" stroke="white"/>
<path d="M85.9263 169.136V151.5H86.9524V159.798H93.6602V160.94H86.9524V169.136H85.9263Z" fill="white"/>
<rect x="80.3682" y="190.245" width="15.1738" height="18.6236" fill="#A4BCFC" stroke="white"/>
<path d="M87.3081 208.381V190.745H88.3342V199.043H95.042V200.185H88.3342V208.381H87.3081Z" fill="white"/>
<rect x="134.737" y="190.245" width="15.1738" height="18.6236" fill="#A4BCFC" stroke="white"/>
<path d="M141.677 208.381V190.745H142.703V199.043H149.411V200.185H142.703V208.381H141.677Z" fill="white"/>
<rect x="106.862" y="150.987" width="15.1738" height="18.6236" fill="#A4BCFC" stroke="white"/>
<path d="M113.802 169.123V151.487H114.828V159.786H121.536V160.927H114.828V169.123H113.802Z" fill="white"/>
<rect x="134.737" y="151" width="15.1738" height="18.6236" fill="#A4BCFC" stroke="white"/>
<path d="M141.677 169.136V151.5H142.703V159.798H149.411V160.94H142.703V169.136H141.677Z" fill="white"/>
<path d="M108.511 196.508H119.36C121.846 196.508 123.86 198.523 123.86 201.008V224.517H104.011V201.008C104.011 198.523 106.026 196.508 108.511 196.508Z" fill="#755C03" stroke="#FFF2F2"/>
<rect x="72.6348" y="173.477" width="83.6274" height="7.30005" fill="#B9945E"/>
<rect x="98.2373" y="135.901" width="32.4224" height="7.30005" fill="#7B5010"/>
<path d="M110.984 119.894H117.913C120.398 119.894 122.413 121.908 122.413 124.394V135.391H106.484V124.394C106.484 121.908 108.499 119.894 110.984 119.894Z" fill="#A4BCFC" stroke="white"/>
<path d="M113.936 135.901V119.394H114.962V135.901H113.936Z" fill="white"/>
<rect x="113.55" y="196.008" width="0.770508" height="28.4878" fill="#FFF2F2"/>
</svg>
