<svg width="223" height="150" viewBox="0 0 223 150" fill="none" xmlns="http://www.w3.org/2000/svg">
<path d="M222.012 135.924C222.012 155.075 172.313 148.348 111.006 148.348C49.6998 148.348 0.000976562 155.075 0.000976562 135.924C0.000976562 129.062 49.6998 123.5 111.006 123.5C172.313 123.5 222.012 129.062 222.012 135.924Z" fill="#D9D9D9"/>
<path d="M213.5 59.5H7V138.5H213.5V59.5Z" fill="#EC996F"/>
<path d="M41.625 75.5H61.25H80.875H100.5V85.5V95.5H80.875H61.25H41.625H22V85.5V75.5H41.625Z" fill="#62AAFF"/>
<path fill-rule="evenodd" clip-rule="evenodd" d="M21.5 75H101V96H21.5V75ZM22.5 76V85H41.125V76H22.5ZM42.125 76V85H60.75V76H42.125ZM61.75 76V85H80.375V76H61.75ZM81.375 76V85H100V76H81.375ZM100 86H81.375V95H100V86ZM80.375 95V86H61.75V95H80.375ZM60.75 95V86H42.125V95H60.75ZM41.125 95V86H22.5V95H41.125Z" fill="#EFEFEF"/>
<path d="M144 59.5V0H161V59.5H144Z" fill="#D9D9D9"/>
<path d="M174 59.5V0H191V59.5H174Z" fill="#D9D9D9"/>
<path d="M161 10.5H144V20H161V10.5Z" fill="#E57373"/>
<path d="M191 10.5H174V20H191V10.5Z" fill="#E57373"/>
<path d="M161 23.5H144V27.5H161V23.5Z" fill="#E57373"/>
<path d="M191 23.5H174V27.5H191V23.5Z" fill="#E57373"/>
<path d="M32 138.5V108.5H56V138.5H32Z" fill="#E7E7E7"/>
<g clip-path="url(#clip0_94_223)">
<path d="M122 85.5V138.5H200V85.5H122Z" fill="#F5F5F5"/>
<path fill-rule="evenodd" clip-rule="evenodd" d="M132 127.026H126V126.026H132V127.026Z" fill="#858585"/>
<path fill-rule="evenodd" clip-rule="evenodd" d="M132 135.026H126V134.026H132V135.026Z" fill="#858585"/>
<path fill-rule="evenodd" clip-rule="evenodd" d="M125 127.026H122V126.026H125V127.026Z" fill="#858585"/>
<path fill-rule="evenodd" clip-rule="evenodd" d="M125 135.026H122V134.026H125V135.026Z" fill="#858585"/>
<path fill-rule="evenodd" clip-rule="evenodd" d="M139 127.026H133V126.026H139V127.026Z" fill="#858585"/>
<path fill-rule="evenodd" clip-rule="evenodd" d="M139 135.026H133V134.026H139V135.026Z" fill="#858585"/>
<path fill-rule="evenodd" clip-rule="evenodd" d="M146 127.026H140V126.026H146V127.026Z" fill="#858585"/>
<path fill-rule="evenodd" clip-rule="evenodd" d="M146 135.026H140V134.026H146V135.026Z" fill="#858585"/>
<path fill-rule="evenodd" clip-rule="evenodd" d="M153 127.026H147V126.026H153V127.026Z" fill="#858585"/>
<path fill-rule="evenodd" clip-rule="evenodd" d="M153 135.026H147V134.026H153V135.026Z" fill="#858585"/>
<path fill-rule="evenodd" clip-rule="evenodd" d="M160 127.026H154V126.026H160V127.026Z" fill="#858585"/>
<path fill-rule="evenodd" clip-rule="evenodd" d="M160 135.026H154V134.026H160V135.026Z" fill="#858585"/>
<path fill-rule="evenodd" clip-rule="evenodd" d="M181 135.026H175V134.026H181V135.026Z" fill="#858585"/>
<path fill-rule="evenodd" clip-rule="evenodd" d="M167 127.026H161V126.026H167V127.026Z" fill="#858585"/>
<path fill-rule="evenodd" clip-rule="evenodd" d="M181 127.026H175V126.026H181V127.026Z" fill="#858585"/>
<path fill-rule="evenodd" clip-rule="evenodd" d="M167 135.026H161V134.026H167V135.026Z" fill="#858585"/>
<path fill-rule="evenodd" clip-rule="evenodd" d="M188 135.026H182V134.026H188V135.026Z" fill="#858585"/>
<path fill-rule="evenodd" clip-rule="evenodd" d="M174 127.026H168V126.026H174V127.026Z" fill="#858585"/>
<path fill-rule="evenodd" clip-rule="evenodd" d="M188 127.026H182V126.026H188V127.026Z" fill="#858585"/>
<path fill-rule="evenodd" clip-rule="evenodd" d="M174 135.026H168V134.026H174V135.026Z" fill="#858585"/>
<path fill-rule="evenodd" clip-rule="evenodd" d="M191.217 127.526C190.509 127.041 189.641 126.95 189.062 127.022L188.938 126.03C189.693 125.935 190.824 126.044 191.783 126.701C192.771 127.378 193.5 128.586 193.5 130.526C193.5 132.466 192.771 133.673 191.783 134.351C190.824 135.007 189.693 135.116 188.938 135.022L189.062 134.03C189.641 134.102 190.509 134.011 191.217 133.526C191.895 133.061 192.5 132.186 192.5 130.526C192.5 128.866 191.895 127.99 191.217 127.526Z" fill="#858585"/>
<path fill-rule="evenodd" clip-rule="evenodd" d="M187.006 128.943C186.63 129.465 186.5 130.106 186.5 130.526C186.5 130.946 186.63 131.587 187.006 132.109C187.363 132.605 187.963 133.026 189 133.026C190.037 133.026 190.637 132.605 190.994 132.109C191.37 131.587 191.5 130.946 191.5 130.526C191.5 130.106 191.37 129.465 190.994 128.943C190.637 128.447 190.037 128.026 189 128.026C187.963 128.026 187.363 128.447 187.006 128.943ZM186.194 128.359C186.737 127.605 187.637 127.026 189 127.026C190.363 127.026 191.263 127.605 191.806 128.359C192.33 129.087 192.5 129.946 192.5 130.526C192.5 131.106 192.33 131.965 191.806 132.693C191.263 133.447 190.363 134.026 189 134.026C187.637 134.026 186.737 133.447 186.194 132.693C185.67 131.965 185.5 131.106 185.5 130.526C185.5 129.946 185.67 129.087 186.194 128.359Z" fill="#4C4848"/>
<path fill-rule="evenodd" clip-rule="evenodd" d="M169.006 128.943C168.63 129.465 168.5 130.106 168.5 130.526C168.5 130.946 168.63 131.587 169.006 132.109C169.363 132.605 169.963 133.026 171 133.026C172.037 133.026 172.637 132.605 172.994 132.109C173.37 131.587 173.5 130.946 173.5 130.526C173.5 130.106 173.37 129.465 172.994 128.943C172.637 128.447 172.037 128.026 171 128.026C169.963 128.026 169.363 128.447 169.006 128.943ZM168.194 128.359C168.737 127.605 169.637 127.026 171 127.026C172.363 127.026 173.263 127.605 173.806 128.359C174.33 129.087 174.5 129.946 174.5 130.526C174.5 131.106 174.33 131.965 173.806 132.693C173.263 133.447 172.363 134.026 171 134.026C169.637 134.026 168.737 133.447 168.194 132.693C167.67 131.965 167.5 131.106 167.5 130.526C167.5 129.946 167.67 129.087 168.194 128.359Z" fill="#4C4848"/>
<path fill-rule="evenodd" clip-rule="evenodd" d="M148.006 128.943C147.63 129.465 147.5 130.106 147.5 130.526C147.5 130.946 147.63 131.587 148.006 132.109C148.363 132.605 148.963 133.026 150 133.026C151.037 133.026 151.637 132.605 151.994 132.109C152.37 131.587 152.5 130.946 152.5 130.526C152.5 130.106 152.37 129.465 151.994 128.943C151.637 128.447 151.037 128.026 150 128.026C148.963 128.026 148.363 128.447 148.006 128.943ZM147.194 128.359C147.737 127.605 148.637 127.026 150 127.026C151.363 127.026 152.263 127.605 152.806 128.359C153.33 129.087 153.5 129.946 153.5 130.526C153.5 131.106 153.33 131.965 152.806 132.693C152.263 133.447 151.363 134.026 150 134.026C148.637 134.026 147.737 133.447 147.194 132.693C146.67 131.965 146.5 131.106 146.5 130.526C146.5 129.946 146.67 129.087 147.194 128.359Z" fill="#4C4848"/>
<path fill-rule="evenodd" clip-rule="evenodd" d="M127.006 128.943C126.63 129.465 126.5 130.106 126.5 130.526C126.5 130.946 126.63 131.587 127.006 132.109C127.363 132.605 127.963 133.026 129 133.026C130.037 133.026 130.637 132.605 130.994 132.109C131.37 131.587 131.5 130.946 131.5 130.526C131.5 130.106 131.37 129.465 130.994 128.943C130.637 128.447 130.037 128.026 129 128.026C127.963 128.026 127.363 128.447 127.006 128.943ZM126.194 128.359C126.737 127.605 127.637 127.026 129 127.026C130.363 127.026 131.263 127.605 131.806 128.359C132.33 129.087 132.5 129.946 132.5 130.526C132.5 131.106 132.33 131.965 131.806 132.693C131.263 133.447 130.363 134.026 129 134.026C127.637 134.026 126.737 133.447 126.194 132.693C125.67 131.965 125.5 131.106 125.5 130.526C125.5 129.946 125.67 129.087 126.194 128.359Z" fill="#4C4848"/>
<path d="M142 113.24L126 115.792V126H135.5C135.5 123.788 136.8 119.365 142 119.365C147.2 119.365 148.5 123.788 148.5 126H169.5C169.5 123.788 170.8 119.365 176 119.365C181.2 119.365 182.5 123.788 182.5 126H192.5V115.281L176 113.24L170 101.5H148L142 113.24Z" fill="#F7BE2C"/>
<path d="M154 112.729L159 102.521H169L174 112.729H154Z" fill="#C3E9FF"/>
<path d="M149 102.521H158L152.665 112.729H144L149 102.521Z" fill="#C3E9FF"/>
<path d="M127 120.896V116.813L133 115.792L131 119.875L127 120.896Z" fill="#ECECEC"/>
</g>
<defs>
<clipPath id="clip0_94_223">
<rect width="78" height="53" fill="white" transform="translate(122 85.5)"/>
</clipPath>
</defs>
</svg>
