<svg width="311" height="186" viewBox="0 0 311 186" fill="none" xmlns="http://www.w3.org/2000/svg">
<path d="M7.37942 144.827C-25.5206 99.6682 67.0634 87.1099 117.468 86.4757C140.667 83.093 197.44 75.4396 238.945 71.8877C290.825 67.4479 318.664 111.846 297.152 153.073C275.641 194.299 48.5044 201.276 7.37942 144.827Z" fill="#D2FFD1"/>
<path d="M181.678 58.7348C183.102 77.3293 163.454 81.0664 154.261 80.1549C147.855 84.8947 139.73 82.1298 136.468 80.1549C136.023 80.3068 116.287 83.4363 107.391 80.1549C77.1417 71.04 93.6005 59.6463 105.611 55.0889C101.163 52.6582 94.2232 44.0598 102.052 29.1113C109.881 14.1629 122.811 25.9211 128.298 33.6688C130.374 27.2884 139.063 14.5275 157.212 14.5275C175.361 14.5275 171.595 31.542 167.443 40.0492C171.595 38.5301 180.255 40.1404 181.678 58.7348Z" fill="#35C232"/>
<path d="M125.034 128.429C122.199 131.784 125.034 78.1007 125.034 78.1007C122.766 61.6601 113.559 48.6027 109.239 44.1291L113.289 43.2903C117.744 51.1191 126.897 66.8607 127.869 67.1962C128.841 67.5317 125.304 51.3987 123.414 43.2903H125.034C127.059 54.1947 131.838 75.5004 134.754 73.4873C137.67 71.4741 137.859 49.4415 137.589 38.6768H140.423C140.153 39.0962 139.532 41.6965 139.208 48.7425C138.884 55.7885 141.773 53.3559 143.258 51.2589C144.203 48.8823 149.981 41.9482 165.533 33.2246L166.343 35.3216C148.847 41.0255 142.043 66.2176 140.423 78.1007L139.613 128.429C139.613 128.429 127.869 125.074 125.034 128.429Z" fill="#5E3F01"/>
<path d="M143.877 67.7148C145.873 92.7343 118.318 97.7628 105.425 96.5363C96.4409 102.914 85.0447 99.1936 80.4696 96.5363C79.8457 96.7407 52.1665 100.952 39.6892 96.5363C-2.73474 84.2719 20.3487 68.9413 37.1934 62.809C30.9546 59.5385 21.222 47.969 32.2023 27.8553C43.1826 7.7416 61.3168 23.5628 69.0113 33.9876C71.9227 25.4024 84.1092 8.23218 109.564 8.23218C135.018 8.23218 129.736 31.1258 123.913 42.5726C129.736 40.5285 141.881 42.6953 143.877 67.7148Z" fill="#71E86E"/>
<path d="M65.012 161.088C61.0352 165.567 65.012 93.8987 65.012 93.8987C61.8305 71.9502 48.9154 54.5183 42.8555 48.5459L48.5366 47.426C54.7859 57.8777 67.6253 78.8931 68.9888 79.341C70.3522 79.7889 65.3907 58.251 62.7395 47.426H65.012C67.8525 61.9837 74.5563 90.4272 78.6467 87.7397C82.7372 85.0521 83.0023 55.6381 82.6235 41.267H86.6003C86.2216 41.8269 85.3505 45.2984 84.896 54.7049C84.4415 64.1114 88.4941 60.8639 90.5771 58.0644C91.9028 54.8915 100.008 45.6343 121.823 33.9882L122.96 36.7877C98.4171 44.4025 88.8728 78.0345 86.6003 93.8987L85.4641 161.088C85.4641 161.088 68.9888 156.609 65.012 161.088Z" fill="#5E3F01"/>
<path d="M241.724 42.6791C243.157 60.6307 223.371 64.2387 214.113 63.3587C207.662 67.9346 199.479 65.2653 196.194 63.3587C195.746 63.5053 175.87 66.5266 166.911 63.3587C136.448 54.5589 153.023 43.5591 165.119 39.1592C160.639 36.8126 153.651 28.5114 161.535 14.0797C169.42 -0.351992 182.441 10.9998 187.966 18.4796C190.057 12.3197 198.807 0 217.085 0C235.363 0 231.57 16.4263 227.388 24.6394C231.57 23.1728 240.29 24.7274 241.724 42.6791Z" fill="#39AD37"/>
<path d="M184.679 109.964C181.824 113.203 184.679 61.3755 184.679 61.3755C182.395 45.5032 173.123 32.8972 168.772 28.5783L172.851 27.7685C177.337 35.3267 186.555 50.524 187.534 50.848C188.513 51.1719 184.951 35.5966 183.047 27.7685H184.679C186.718 38.296 191.531 58.8651 194.467 56.9215C197.404 54.978 197.594 33.7071 197.322 23.3145H200.177C199.905 23.7194 199.28 26.2298 198.954 33.0322C198.627 39.8346 201.537 37.4862 203.032 35.4616C203.984 33.1672 209.803 26.4728 225.464 18.0508L226.28 20.0753C208.661 25.582 201.809 49.9032 200.177 61.3755L199.361 109.964C199.361 109.964 187.534 106.725 184.679 109.964Z" fill="#5E3F01"/>
<path d="M310.909 84.832C312.673 107.358 288.32 111.885 276.925 110.781C268.985 116.523 258.913 113.173 254.87 110.781C254.319 110.965 229.856 114.756 218.829 110.781C181.335 99.7389 201.736 85.9362 216.623 80.4152C211.109 77.4706 202.507 67.0542 212.212 48.9451C221.916 30.836 237.943 45.0804 244.743 54.4662C247.316 46.7367 258.087 31.2777 280.583 31.2777C303.079 31.2777 298.411 51.8896 293.265 62.1956C298.411 60.3552 309.145 62.306 310.909 84.832Z" fill="#2A8828"/>
<path d="M240.698 169.262C237.184 173.326 240.698 108.292 240.698 108.292C237.887 88.3757 226.475 72.5575 221.12 67.138L226.14 66.1219C231.662 75.606 243.007 94.6759 244.212 95.0823C245.416 95.4888 241.032 75.9447 238.69 66.1219H240.698C243.208 79.3319 249.131 105.142 252.745 102.703C256.36 100.265 256.594 73.5737 256.259 60.533H259.773C259.439 61.0411 258.669 64.1912 258.267 72.7269C257.866 81.2626 261.447 78.3157 263.287 75.7753C264.459 72.8962 271.62 64.496 290.897 53.928L291.901 56.4684C270.215 63.3782 261.781 93.8968 259.773 108.292L258.769 169.262C258.769 169.262 244.212 165.197 240.698 169.262Z" fill="#5E3F01"/>
<path d="M108.573 176.051C106.973 173.251 109.573 171.218 111.073 170.551C111.74 170.218 113.273 169.751 114.073 170.551C114.873 171.351 114.406 174.551 114.073 176.051H108.573Z" fill="#755C03"/>
<path d="M149.129 176.051C147.529 173.251 150.129 171.218 151.629 170.551C152.295 170.218 153.828 169.751 154.628 170.551C155.428 171.351 154.962 174.551 154.628 176.051H149.129Z" fill="#755C03"/>
<path d="M156.851 178.022C155.251 175.222 157.851 173.188 159.351 172.522C160.017 172.188 161.551 171.722 162.351 172.522C163.151 173.322 162.684 176.522 162.351 178.022H156.851Z" fill="#755C03"/>
<path d="M119.851 176.762C118.251 173.962 120.851 171.928 122.351 171.262C123.017 170.928 125.548 171.02 126.348 171.82C127.148 172.62 126.681 175.82 126.348 177.32L119.851 176.762Z" fill="#755C03"/>
<path d="M120.848 172.08C122.048 169.68 120.348 153.58 119.348 144.08H128.348C126.348 147.58 126.517 162.08 125.851 171.58C125.184 171.58 122.048 171.28 120.848 172.08Z" fill="#C79F8B"/>
<path d="M158.515 173.08C159.448 170.68 158.126 154.58 157.348 145.08H164.348C162.793 148.58 162.924 163.08 162.406 172.58C161.887 172.58 159.448 172.28 158.515 173.08Z" fill="#C79F8B"/>
<path d="M149.643 172.08C151.478 170.023 148.878 153.223 147.348 145.08C148.878 145.937 152.549 147.566 154.997 147.223C157.444 146.88 156.017 163.08 154.997 171.223C153.977 171.223 151.478 171.394 149.643 172.08Z" fill="#AC8875"/>
<path d="M109.851 171.58C111.051 169.18 109.351 149.58 108.351 140.08C109.351 141.08 111.751 142.98 113.351 142.58C114.951 142.18 114.017 161.08 113.351 170.58C112.684 170.58 111.051 170.78 109.851 171.58Z" fill="#AC8875"/>
<path d="M132.848 128.58C116.048 128.18 107.348 121.58 103.848 118.08C101.348 114.08 96.2238 107.454 98.8481 105.58C102.348 103.08 104.848 96.58 103.848 96.58C102.848 96.58 97.3481 97.58 97.3481 101.58C96.0147 101.247 92.5481 101.08 89.3481 103.08C87.8481 105.08 82.8481 108.58 81.3481 109.08C80.1814 109.08 77.0481 111.08 79.8481 113.08C83.3481 112.913 94.6481 112.48 95.8481 118.08C98.8481 135.58 108.348 141.913 114.348 144.58C121.015 144.413 136.848 144.98 146.848 148.58C156.848 152.18 166.681 145.747 170.348 142.08C171.181 139.913 170.448 134.48 160.848 130.08C156.848 128.08 153.848 129.08 132.848 128.58Z" fill="#C79F8B"/>
<path d="M93.4936 104.575C91.9674 104.151 90.9433 105.374 90.622 106.039C90.108 107.102 91.39 106.892 92.0952 106.654C93.1973 106.138 95.0198 104.999 93.4936 104.575Z" fill="#2B0404"/>
<path d="M98.8946 100.849C99.2843 99.2466 101.046 98.5019 101.878 98.3298C102.882 98.8234 98.9075 102.849 98.9042 102.349C98.901 101.849 98.4075 102.852 98.8946 100.849Z" fill="#907676"/>
<circle cx="0.22583" cy="0.22583" r="0.22583" transform="matrix(-1 0 0 1 93.0566 104.841)" fill="white"/>
<path d="M79.7498 112.032C79.9242 111.884 84.4511 111.22 84.4511 111.22L84.5252 111.649C84.5252 111.649 80.0414 112.576 79.824 112.462C79.6066 112.347 79.5753 112.181 79.7498 112.032Z" fill="#654B4B"/>
</svg>
